<svg xmlns="http://www.w3.org/2000/svg" width="512" height="512" viewBox="0 0 512 512" version="1.1"><path d="M 305.986 102.514 L 299.531 109.027 339.265 148.762 L 378.999 188.496 401.749 165.501 L 424.500 142.506 401.747 164.998 L 378.993 187.490 339.762 148.259 L 300.531 109.027 306.986 102.514 C 310.537 98.931, 313.217 96, 312.942 96 C 312.667 96, 309.537 98.931, 305.986 102.514 M 283.958 183.250 C 288.102 187.665, 289 188.459, 289 187.708 C 289 187.548, 286.863 185.410, 284.250 182.958 L 279.500 178.500 283.958 183.250 M 329 186.914 C 309.609 191.594, 306.691 192.598, 302.096 196.164 C 299.811 197.938, 299.587 197.945, 297.596 196.301 C 296.443 195.350, 298.337 197.517, 301.805 201.118 L 308.110 207.665 333.305 201.845 C 347.162 198.644, 359.585 195.767, 360.912 195.453 C 363.207 194.908, 363.015 194.569, 356.941 188.440 C 353.430 184.898, 350.095 182.047, 349.529 182.103 C 348.963 182.160, 339.725 184.325, 329 186.914 M 282.500 205 C 288.531 211.050, 293.691 216, 293.966 216 C 294.241 216, 289.531 211.050, 283.500 205 C 277.469 198.950, 272.309 194, 272.034 194 C 271.759 194, 276.469 198.950, 282.500 205 M 128 292 L 128 328 136 328 L 144 328 144 292 L 144 256 136 256 L 128 256 128 292 M 96 296 L 96 304 104 304 L 112 304 112 296 L 112 288 104 288 L 96 288 96 296 M 463 304.500 C 464.866 306.425, 466.617 308, 466.892 308 C 467.167 308, 465.866 306.425, 464 304.500 C 462.134 302.575, 460.383 301, 460.108 301 C 459.833 301, 461.134 302.575, 463 304.500" stroke="none" fill="#f87763" fill-rule="evenodd"/><path d="M 359.872 36.750 C 358.616 38.352, 358.655 38.379, 360.325 37.066 C 362.008 35.742, 365.670 39.154, 407.575 81.088 C 432.559 106.090, 453 126.308, 453 126.019 C 453 125.267, 362.621 35, 361.868 35 C 361.525 35, 360.627 35.788, 359.872 36.750 M 395.500 92 C 420.245 116.750, 440.717 137, 440.992 137 C 441.267 137, 421.245 116.750, 396.500 92 C 371.755 67.250, 351.283 47, 351.008 47 C 350.733 47, 370.755 67.250, 395.500 92 M 358 76.313 C 358 76.485, 359.462 77.948, 361.250 79.563 L 364.500 82.500 361.563 79.250 C 358.825 76.221, 358 75.540, 358 76.313 M 381 99.500 C 382.866 101.425, 384.617 103, 384.892 103 C 385.167 103, 383.866 101.425, 382 99.500 C 380.134 97.575, 378.383 96, 378.108 96 C 377.833 96, 379.134 97.575, 381 99.500 M 396 114.500 C 398.987 117.525, 401.657 120, 401.932 120 C 402.207 120, 399.987 117.525, 397 114.500 C 394.013 111.475, 391.343 109, 391.068 109 C 390.793 109, 393.013 111.475, 396 114.500 M 266.946 197.750 L 263.500 201.500 267.250 198.054 C 270.740 194.846, 271.460 194, 270.696 194 C 270.529 194, 268.842 195.688, 266.946 197.750 M 271.247 216.497 L 282.994 228.484 288.747 222.504 L 294.500 216.524 288.741 221.987 L 282.982 227.449 271.241 215.980 L 259.500 204.511 271.247 216.497 M 241.500 234.779 C 227.505 248.474, 222.405 251.749, 210.825 254.479 C 207.346 255.299, 201.688 255.977, 198.250 255.985 L 192 256 192 296 L 192 336 203.919 336 L 215.839 336 216.170 312.750 C 216.529 287.491, 216.789 286.208, 222.864 279.658 C 225.952 276.329, 232.030 273, 235.019 273 C 236.174 273, 236.840 272.550, 236.500 272 C 236.160 271.450, 234.818 271, 233.518 271 C 230.442 271, 225.355 265.873, 224.821 262.235 C 224.210 258.072, 225.613 253.712, 228.408 251.086 C 231.096 248.561, 238.636 247.426, 257.102 246.764 C 266.693 246.421, 266.707 246.424, 268.294 249.189 C 270.132 252.393, 275.592 256.011, 278.500 255.952 C 279.689 255.929, 278.975 255.368, 276.741 254.571 C 271.618 252.743, 269.999 251.230, 267.761 246.183 C 266.354 243.008, 266.028 240.795, 266.530 237.820 C 267.193 233.899, 267.034 233.592, 261.388 227.887 C 258.184 224.649, 255.324 222.013, 255.031 222.029 C 254.739 222.045, 248.650 227.782, 241.500 234.779 M 245.500 272.935 C 252.384 274.611, 257.986 279.147, 261.636 286 C 263.268 289.065, 263.541 292.387, 263.830 312.750 L 264.161 336 284.331 335.983 L 304.500 335.966 308.500 331.891 C 310.700 329.649, 313.738 327.170, 315.250 326.382 C 316.762 325.594, 318 324.593, 318 324.158 C 318 323.723, 315.325 322.089, 312.056 320.527 C 307.875 318.529, 305.763 316.843, 304.935 314.843 C 303.849 312.222, 303.341 312, 298.428 312 C 288.656 312, 283.162 310.215, 278.457 305.510 C 274.135 301.187, 273.706 300.027, 271.513 286.690 C 270.770 282.168, 265.011 275.327, 260.282 273.347 C 258.477 272.591, 253.868 272.045, 249.782 272.102 C 244.487 272.177, 243.318 272.404, 245.500 272.935 M 306 274 C 304.900 275.100, 304.014 276.563, 304.030 277.250 C 304.048 277.960, 304.492 277.760, 305.060 276.786 C 305.609 275.843, 307.046 274.381, 308.252 273.536 C 309.458 272.691, 309.895 272, 309.223 272 C 308.550 272, 307.100 272.900, 306 274 M 318.437 343.250 L 315.500 346.500 318.750 343.563 C 320.538 341.948, 322 340.485, 322 340.313 C 322 339.540, 321.175 340.221, 318.437 343.250 M 350 340.313 C 350 340.485, 351.462 341.948, 353.250 343.563 L 356.500 346.500 353.563 343.250 C 350.825 340.221, 350 339.540, 350 340.313 M 352.437 377.250 L 349.500 380.500 352.750 377.563 C 355.779 374.825, 356.460 374, 355.687 374 C 355.515 374, 354.052 375.462, 352.437 377.250 M 296 396 L 296 408 308.865 408 C 320.271 408, 322.022 408.230, 324.306 410.026 C 325.723 411.140, 327.164 412.940, 327.508 414.026 C 328.091 415.861, 329.072 416, 341.476 416 L 354.817 416 353 410 C 352.001 406.700, 351.529 404, 351.951 404 C 354.120 404, 362.057 395.363, 364.979 389.821 L 368.313 383.500 363.406 388.292 C 348.027 403.314, 323.891 403.412, 308.779 388.514 C 304.850 384.640, 303.619 384, 300.100 384 L 296 384 296 396 M 378.573 386 C 378.941 387.375, 379.659 389.175, 380.169 390 C 380.813 391.042, 380.892 390.737, 380.427 389 C 380.059 387.625, 379.341 385.825, 378.831 385 C 378.187 383.958, 378.108 384.263, 378.573 386 M 382.634 397 C 382.971 398.375, 383.862 400.850, 384.613 402.500 C 385.710 404.909, 385.859 405.008, 385.366 403 C 385.029 401.625, 384.138 399.150, 383.387 397.500 C 382.290 395.091, 382.141 394.992, 382.634 397 M 387.634 411 C 387.971 412.375, 388.862 414.850, 389.613 416.500 C 390.710 418.909, 390.859 419.008, 390.366 417 C 390.029 415.625, 389.138 413.150, 388.387 411.500 C 387.290 409.091, 387.141 408.992, 387.634 411 M 363.214 417.060 C 364.157 417.609, 365.619 419.046, 366.464 420.252 C 367.309 421.458, 368 421.895, 368 421.223 C 368 419.611, 364.340 415.992, 362.750 416.030 C 362.040 416.048, 362.240 416.492, 363.214 417.060 M 392.634 425 C 392.971 426.375, 393.862 428.850, 394.613 430.500 C 395.710 432.909, 395.859 433.008, 395.366 431 C 395.029 429.625, 394.138 427.150, 393.387 425.500 C 392.290 423.091, 392.141 422.992, 392.634 425 M 364.814 429.119 C 363.336 430.703, 362.549 432, 363.064 432 C 364.311 432, 368 428.264, 368 427 C 368 425.710, 367.979 425.723, 364.814 429.119 M 334 432.805 C 334 433.248, 335.053 436.736, 336.340 440.555 L 338.681 447.500 354.930 448 L 371.179 448.500 373.590 451.306 C 376.763 455, 376.631 457.523, 373.077 461.077 L 370.154 464 357.151 464 L 344.148 464 348.162 476 L 352.176 488 383.998 488 L 415.820 488 412.287 478.250 C 410.343 472.887, 408.301 467.095, 407.748 465.377 C 407.014 463.099, 406.263 462.380, 404.969 462.718 C 401.862 463.531, 392.198 460.965, 385.222 457.475 C 377.347 453.535, 367.604 444.638, 363.037 437.215 L 359.828 432 346.914 432 C 339.811 432, 334 432.362, 334 432.805 M 397.634 439 C 397.971 440.375, 398.862 442.850, 399.613 444.500 C 400.710 446.909, 400.859 447.008, 400.366 445 C 400.029 443.625, 399.138 441.150, 398.387 439.500 C 397.290 437.091, 397.141 436.992, 397.634 439 M 402.634 453 C 402.971 454.375, 403.862 456.850, 404.613 458.500 C 405.710 460.909, 405.859 461.008, 405.366 459 C 405.029 457.625, 404.138 455.150, 403.387 453.500 C 402.290 451.091, 402.141 450.992, 402.634 453" stroke="none" fill="#4891d3" fill-rule="evenodd"/><path d="M 339.489 69.481 C 332.534 75.862, 330.311 76.729, 326.267 74.638 C 323.329 73.119, 323.301 73.132, 317.952 78.549 C 313.757 82.796, 312.848 84.248, 313.792 85.192 C 314.456 85.856, 315 88.109, 315 90.197 C 315 93.539, 314.139 94.901, 307.814 101.559 L 300.628 109.124 339.813 148.310 L 378.999 187.496 401.500 164.994 L 424.002 142.493 384.740 103.240 L 345.478 63.987 339.489 69.481 M 293 126.423 C 293 126.655, 290.275 138.650, 286.944 153.078 L 280.888 179.311 285.194 183.786 C 298.425 197.537, 299.184 198.132, 301.421 196.511 C 306.518 192.819, 311.528 191.035, 326.500 187.581 C 335.300 185.551, 344.260 183.428, 346.411 182.863 L 350.323 181.836 322.418 153.918 C 297.651 129.139, 293 124.792, 293 126.423 M 265.995 199.505 L 260.540 205.029 271.767 216.256 L 282.995 227.484 288.500 221.978 L 294.005 216.473 282.728 205.227 L 271.450 193.981 265.995 199.505 M 320 297.495 L 320 306.990 335.653 314.495 C 344.263 318.623, 351.463 322, 351.653 322 C 351.844 322, 352 314.350, 352 305 L 352 288 336 288 L 320 288 320 297.495 M 432 296.921 C 432 304.100, 432.205 305, 433.840 305 C 434.852 305, 438.392 306.355, 441.705 308.011 C 449.161 311.736, 457.188 320.032, 460.804 327.747 L 463.500 333.500 463.774 410.750 L 464.048 488 472.024 488 L 480 488 479.983 413.750 C 479.964 332.297, 479.941 331.949, 473.984 319.467 C 470.405 311.967, 461.229 301.639, 454.056 297.036 C 449.231 293.940, 441.480 290.845, 435.250 289.528 L 432 288.841 432 296.921" stroke="none" fill="#f9e109" fill-rule="evenodd"/><path d="M 345.291 29.244 C 337.934 36.528, 331.652 43.537, 331.331 44.818 C 331.009 46.099, 331.269 48.295, 331.908 49.697 C 332.984 52.059, 332.662 52.673, 327.535 58.049 C 323.078 62.721, 322.003 64.499, 322.015 67.176 C 322.033 71.060, 322.705 72.282, 325.684 73.850 C 330.103 76.176, 332.898 75.239, 339.058 69.364 C 344.309 64.354, 345.156 63.882, 346.669 65.114 C 350.833 68.505, 424 141.857, 424 142.641 C 424 143.123, 413.873 153.636, 401.497 166.003 L 378.993 188.490 339.286 148.783 L 299.579 109.076 307.290 101.153 C 315.779 92.429, 316.602 90.059, 312.932 84.904 C 311.305 82.620, 310.096 82, 307.266 82 C 304.021 82, 302.558 83.102, 292.331 93.250 L 280.993 104.500 272.462 141.500 L 263.931 178.500 252.466 190.015 C 242.179 200.346, 241 201.893, 241 205.065 C 241 207.009, 241.451 209.051, 242.002 209.602 C 242.670 210.270, 239.078 214.480, 231.190 222.270 C 217.178 236.110, 212.528 238.713, 200.110 239.671 C 192.491 240.259, 192 240.177, 192 238.323 C 192 237.237, 190.958 235.370, 189.686 234.174 C 187.473 232.095, 186.516 232, 167.860 232 C 148.758 232, 148.303 232.049, 146.174 234.314 C 144.007 236.621, 144 236.784, 144 282.314 L 144 328 136 328 L 128 328 128 290.174 L 128 252.349 125.686 250.174 C 122.514 247.195, 117.043 247.261, 114.174 250.314 C 112.251 252.362, 112 253.746, 112 262.314 L 112 272 98.174 272 C 78.991 272, 80 270.659, 80 296.140 C 80 321.323, 78.984 320, 98.314 320 L 112 320 112 329.826 C 112 338.803, 112.200 339.839, 114.314 341.826 C 116.458 343.839, 117.639 344, 130.314 344 L 144 344 144 349.826 C 144 354.622, 144.409 356.035, 146.314 357.826 C 148.527 359.905, 149.484 360, 168.140 360 C 187.242 360, 187.697 359.951, 189.826 357.686 C 191.022 356.413, 192 354.642, 192 353.750 C 192 352.329, 194.157 352.090, 209.475 351.814 C 233.535 351.381, 231.418 354.423, 231.797 319.738 C 232.083 293.573, 232.176 292.442, 234.221 290.264 C 237.158 287.138, 242.879 287.178, 245.855 290.346 L 248.059 292.692 247.780 354.190 L 247.500 415.688 233 444.956 C 225.025 461.053, 217.612 474.848, 216.527 475.611 C 213.666 477.626, 208.720 477.320, 206.201 474.972 C 201.448 470.544, 201.693 469.737, 217.427 438.099 L 232.146 408.500 231.823 390.852 C 231.461 371.102, 230.975 369.649, 224.307 368.398 C 221.568 367.884, 220.402 368.213, 218.444 370.053 C 216.046 372.305, 216 372.655, 216 388.638 L 216 404.928 201.750 433.554 C 187.636 461.907, 187.500 462.243, 187.546 468.840 C 187.644 482.952, 197.737 493.031, 211.718 492.978 C 218.554 492.952, 224.189 490.657, 228.842 486.004 C 232.840 482.006, 258.783 430.681, 261.889 420.623 C 263.172 416.470, 264 411.085, 264 406.895 L 264 400 272 400 L 280 400 280 409.826 C 280 418.803, 280.200 419.839, 282.314 421.826 C 284.473 423.853, 285.615 424, 299.231 424 L 313.833 424 325.044 457.750 C 331.599 477.484, 337.105 492.434, 338.302 493.750 C 342.460 498.321, 352 495.283, 352 489.389 C 352 488.298, 350.231 482.140, 348.068 475.703 L 344.137 464 357.145 464 L 370.154 464 373.077 461.077 C 376.631 457.523, 376.763 455, 373.590 451.306 L 371.179 448.500 354.930 448 L 338.681 447.500 336.340 440.555 C 335.053 436.736, 334 433.248, 334 432.805 C 334 432.362, 340.335 432, 348.077 432 L 362.154 432 365.077 429.077 C 368.774 425.380, 368.774 422.620, 365.077 418.923 L 362.154 416 345.144 416 C 329.088 416, 328.100 415.889, 327.508 414.026 C 327.164 412.940, 325.723 411.140, 324.306 410.026 C 322.022 408.230, 320.271 408, 308.865 408 L 296 408 296 396 L 296 384 300.100 384 C 303.619 384, 304.850 384.640, 308.779 388.514 C 323.753 403.276, 348.370 403.300, 363.004 388.567 C 367.265 384.277, 367.794 384.039, 373.120 384.020 L 378.741 384 396.962 435.139 C 406.983 463.266, 415.395 487.453, 415.655 488.889 C 417.401 498.550, 431.976 498.145, 432.010 488.436 C 432.025 484.254, 392.191 372.987, 389.700 370.250 C 388.033 368.419, 386.589 368, 381.945 368 L 376.239 368 375.826 358.573 C 375.456 350.108, 375.035 348.400, 371.703 341.823 C 369.661 337.795, 367.993 333.038, 367.996 331.250 L 368 328 376 328 L 384 328 384 333.826 C 384 338.622, 384.409 340.035, 386.314 341.826 C 388.527 343.905, 389.484 344, 408.140 344 C 427.242 344, 427.697 343.951, 429.826 341.686 C 431.714 339.675, 432 338.227, 432 330.665 L 432 321.959 435.948 323.973 C 441.005 326.553, 445.764 333.483, 447.017 340.092 C 447.605 343.189, 448 374.718, 448 418.462 L 448 491.651 450.314 493.826 C 453.505 496.823, 458.957 496.739, 461.861 493.648 L 464.070 491.296 463.782 413.398 C 463.517 341.562, 463.356 335.150, 461.720 331 C 457.276 319.733, 447.378 309.947, 436.906 306.469 L 432 304.839 432 296.541 L 432 288.242 436.750 289.217 C 451.078 292.157, 467.385 304.836, 473.808 318.031 C 480.152 331.063, 480 328.714, 480 414.036 L 480 491.651 482.314 493.826 C 485.486 496.805, 490.957 496.739, 493.826 493.686 L 496 491.371 496 412.846 C 496 337.981, 495.908 333.961, 494.029 326.614 C 487.223 300.004, 467.373 280.333, 440.750 273.816 L 432 271.675 432 262.012 C 432 247.662, 432.582 248, 407.860 248 C 388.758 248, 388.303 248.049, 386.174 250.314 C 384.468 252.130, 384 253.853, 384 258.314 L 384 264 376 264 L 368 264 368 254.174 C 368 238.938, 370.964 240, 328.443 240 L 293.515 240 301.508 232.032 L 309.500 224.064 346.500 215.522 L 383.500 206.981 409.615 180.883 C 433.272 157.240, 435.924 154.889, 437.799 155.892 C 442.358 158.332, 444.054 157.283, 458.170 143.296 C 471.384 130.202, 472 129.413, 472 125.566 C 472 121.582, 471.448 120.988, 419.230 68.770 C 367.591 17.131, 366.377 16, 362.563 16 C 358.903 16, 357.852 16.806, 345.291 29.244 M 356.097 41.116 L 350.693 47.185 395.594 92.094 C 420.289 116.793, 440.791 136.889, 441.155 136.751 C 441.519 136.613, 444.377 134.071, 447.506 131.101 L 453.195 125.703 407.851 80.351 C 382.913 55.408, 362.281 35.010, 362.004 35.023 C 361.727 35.036, 359.069 37.778, 356.097 41.116 M 292.925 125.005 C 292.884 125.277, 289.992 137.650, 286.497 152.500 L 280.143 179.500 294.322 193.641 L 308.500 207.781 335.167 201.641 C 349.833 198.263, 362.078 195.255, 362.378 194.956 C 362.677 194.656, 347.190 178.684, 327.961 159.461 C 308.732 140.238, 292.966 124.733, 292.925 125.005 M 265.080 199.699 L 259.908 205.397 271.439 216.929 L 282.971 228.460 288.485 223.014 C 291.518 220.019, 294 217.095, 294 216.517 C 294 215.112, 272.773 194, 271.360 194 C 270.751 194, 267.925 196.564, 265.080 199.699 M 241.500 234.779 C 227.505 248.474, 222.405 251.749, 210.825 254.479 C 207.346 255.299, 201.688 255.977, 198.250 255.985 L 192 256 192 296 L 192 336 203.919 336 L 215.839 336 216.170 312.750 C 216.459 292.387, 216.732 289.065, 218.364 286 C 223.144 277.024, 230.245 272.640, 240 272.640 C 249.755 272.640, 256.856 277.024, 261.636 286 C 263.268 289.065, 263.541 292.387, 263.830 312.750 L 264.161 336 284.331 335.983 L 304.500 335.966 308.500 331.891 C 310.700 329.649, 313.738 327.170, 315.250 326.382 C 316.762 325.594, 318 324.593, 318 324.158 C 318 323.723, 315.344 322.098, 312.098 320.547 C 308.554 318.853, 305.758 316.763, 305.098 315.316 C 304.434 313.859, 304 305.977, 304 295.376 L 304 277.846 306.923 274.923 L 309.846 272 330.923 272 L 352 272 352 264.046 L 352 256.091 314.750 255.796 C 279.475 255.516, 277.314 255.393, 274 253.477 C 268.997 250.586, 265.709 243.821, 266.532 238.112 C 267.152 233.808, 267.053 233.611, 261.363 227.862 C 258.173 224.638, 255.324 222.013, 255.031 222.029 C 254.739 222.045, 248.650 227.782, 241.500 234.779 M 26.174 250.314 C 23.222 253.457, 23.259 258.970, 26.250 261.719 C 29.979 265.146, 44.681 272, 48.303 272 C 52.748 272, 56 268.561, 56 263.860 C 56 259.373, 53.845 257.383, 43.272 252.106 C 33.751 247.355, 29.385 246.897, 26.174 250.314 M 160 296 L 160 344 168 344 L 176 344 176 296 L 176 248 168 248 L 160 248 160 296 M 400 296 L 400 328 408 328 L 416 328 416 296 L 416 264 408 264 L 400 264 400 296 M 368 296 L 368 312 376 312 L 384 312 384 296 L 384 280 376 280 L 368 280 368 296 M 18.174 290.314 C 15.195 293.486, 15.261 298.957, 18.314 301.826 C 20.527 303.905, 21.484 304, 40.140 304 C 59.242 304, 59.697 303.951, 61.826 301.686 C 64.805 298.514, 64.739 293.043, 61.686 290.174 C 59.473 288.095, 58.516 288, 39.860 288 C 20.758 288, 20.303 288.049, 18.174 290.314 M 96 296 L 96 304 104 304 L 112 304 112 296 L 112 288 104 288 L 96 288 96 296 M 320 297.765 L 320 307.530 335.508 315.265 C 344.038 319.519, 351.238 323, 351.508 323 C 351.779 323, 352 315.125, 352 305.500 L 352 288 336 288 L 320 288 320 297.765 M 36.500 324.157 C 26.032 329.465, 24 331.391, 24 336 C 24 340.623, 27.308 344, 31.837 344 C 35.322 344, 50.116 337.059, 53.750 333.719 C 56.850 330.870, 56.818 325.117, 53.686 322.174 C 50.266 318.962, 45.708 319.487, 36.500 324.157 M 325.459 338.367 C 316.292 342.636, 311.418 351.273, 312.186 361.888 C 313.938 386.110, 347.415 392.483, 357.633 370.541 C 361.916 361.344, 359.778 348.645, 352.882 342.312 C 345.898 335.898, 334.334 334.234, 325.459 338.367 M 264 368 L 264 384 272 384 L 280 384 280 378.174 C 280 370.261, 282.292 368, 290.314 368 L 296 368 296 360 L 296 352 280 352 L 264 352 264 368 M 333.465 352.961 C 325.848 356.014, 327.844 367.333, 336 367.333 C 340.052 367.333, 343.333 364.052, 343.333 360 C 343.333 354.989, 337.963 351.158, 333.465 352.961" stroke="none" fill="#000000" fill-rule="evenodd"/><path d="M 356.229 41.268 L 351.027 46.535 396.283 91.783 L 441.538 137.030 447 131.500 L 452.461 125.970 407.485 80.985 C 382.748 56.243, 362.266 36, 361.970 36 C 361.674 36, 359.091 38.370, 356.229 41.268 M 249.175 247.129 C 240.571 247.597, 232.716 248.519, 231.265 249.232 C 223.130 253.224, 222.475 264.442, 230.067 269.759 C 231.715 270.914, 235.954 271.502, 245.908 271.959 C 253.384 272.303, 260.439 273.104, 261.586 273.739 C 265.654 275.993, 270.874 282.804, 271.513 286.690 C 273.706 300.027, 274.135 301.187, 278.457 305.510 C 283.178 310.231, 288.655 312, 298.549 312 L 304 312 304 294 C 304 277.333, 304.148 275.852, 306 274 C 307.879 272.121, 309.333 272, 330 272 L 352 272 352 264 L 352 256 314.250 255.996 C 278.157 255.993, 276.355 255.904, 273.192 253.975 C 271.372 252.866, 269.122 250.620, 268.192 248.985 C 267.261 247.350, 266.050 246.076, 265.500 246.154 C 264.950 246.232, 257.604 246.671, 249.175 247.129 M 160 296 L 160 344 168 344 L 176 344 176 296 L 176 248 168 248 L 160 248 160 296 M 400 296 L 400 328 408 328 L 416 328 416 296 L 416 264 408 264 L 400 264 400 296 M 368 296 L 368 312 376 312 L 384 312 384 296 L 384 280 376 280 L 368 280 368 296 M 236.235 289.037 C 234.990 289.537, 233.527 291.113, 232.985 292.538 C 232.430 293.999, 232 306.466, 232 321.111 L 232 347.091 229.545 349.545 C 228.195 350.895, 226.395 352, 225.545 352 C 224.280 352, 224 353.451, 224 360 C 224 366.549, 224.280 368, 225.545 368 C 226.395 368, 228.195 369.105, 229.545 370.455 C 231.975 372.884, 232 373.097, 232 391.461 L 232 410.014 218 438 C 202.746 468.492, 201.910 471.211, 206.635 474.927 C 209.786 477.406, 212.749 477.564, 215.816 475.417 C 218.512 473.528, 244.656 421.848, 246.632 414.500 C 247.685 410.585, 247.979 396.850, 247.988 351.205 L 248 292.909 245.545 290.455 C 243.001 287.910, 240.128 287.473, 236.235 289.037 M 328.137 337.369 C 323.309 339.116, 317.321 344.470, 314.772 349.319 C 311.915 354.754, 311.731 364.901, 314.398 370 C 319.076 378.945, 326.286 383.426, 336 383.426 C 343.836 383.426, 349.146 380.984, 354.232 375.042 C 362.574 365.297, 361.903 352.836, 352.534 343.466 C 345.478 336.410, 336.788 334.238, 328.137 337.369 M 330.455 354.455 C 328.907 356.002, 328 358.052, 328 360 C 328 361.948, 328.907 363.998, 330.455 365.545 C 332.002 367.093, 334.052 368, 336 368 C 337.948 368, 339.998 367.093, 341.545 365.545 C 343.093 363.998, 344 361.948, 344 360 C 344 358.052, 343.093 356.002, 341.545 354.455 C 339.998 352.907, 337.948 352, 336 352 C 334.052 352, 332.002 352.907, 330.455 354.455 M 364.882 390.071 C 362.036 395.409, 354.068 404, 351.962 404 C 351.546 404, 351.972 406.587, 352.908 409.750 L 354.611 415.500 359.914 416.038 C 366.132 416.669, 368 418.552, 368 424.191 C 368 428.465, 365.271 432, 361.970 432 C 359.971 432, 359.974 432.062, 362.220 436.130 C 366.095 443.150, 377.382 453.586, 385.348 457.514 C 391.792 460.692, 404.292 464.042, 405.436 462.898 C 405.801 462.532, 389.156 414.893, 379.878 389.750 L 377.756 384 372.937 384 L 368.117 384 364.882 390.071" stroke="none" fill="#8abddf" fill-rule="evenodd"/></svg>